<svg width="13" height="16" fill="none" xmlns="http://www.w3.org/2000/svg"><path fill-rule="evenodd" clip-rule="evenodd" d="M3.945 6.578c.73.75 1.622 1.13 2.653 1.13s1.924-.38 2.654-1.13c.73-.749 1.1-1.666 1.1-2.725 0-1.058-.37-1.975-1.1-2.724C8.522.379 7.63 0 6.598 0c-1.03 0-1.924.38-2.653 1.129-.73.75-1.1 1.666-1.1 2.724 0 1.06.37 1.976 1.1 2.725ZM.158 11.292c-.063.36-.105.7-.126 1.011-.021.305-.032.623-.032.945 0 .836.259 1.512.769 2.01.503.493 1.17.742 1.98.742h7.502c.81 0 1.477-.25 1.98-.742.51-.498.769-1.174.769-2.01 0-.32-.01-.638-.031-.944a9.728 9.728 0 0 0-.126-1.012 8.162 8.162 0 0 0-.242-1.016 5.097 5.097 0 0 0-.407-.948 3.565 3.565 0 0 0-.614-.821 2.695 2.695 0 0 0-.881-.57 2.972 2.972 0 0 0-1.126-.208c-.159 0-.313.067-.61.265-.185.124-.399.266-.635.421-.204.134-.48.259-.822.372a3.19 3.19 0 0 1-1.006.167c-.334 0-.672-.056-1.005-.167a3.594 3.594 0 0 1-.822-.372 82.091 82.091 0 0 1-.636-.42c-.297-.2-.45-.266-.61-.266-.405 0-.783.07-1.125.209-.343.14-.64.33-.881.569a3.568 3.568 0 0 0-.614.82 5.09 5.09 0 0 0-.407.949 8.139 8.139 0 0 0-.242 1.016Z" fill="#9EBBBD"/></svg>